<?xml version="1.0" encoding="utf-8"?>
<!-- Generator: Adobe Illustrator 26.3.1, SVG Export Plug-In . SVG Version: 6.00 Build 0)  -->
<svg version="1.1" id="Layer_1" xmlns="http://www.w3.org/2000/svg" xmlns:xlink="http://www.w3.org/1999/xlink" x="0px" y="0px"
	 viewBox="0 0 24 24" style="enable-background:new 0 0 24 24;" xml:space="preserve">
<style type="text/css">
	.st0{fill:none;stroke:#FFFFFF;stroke-width:1.4;stroke-linecap:round;stroke-linejoin:round;}
</style>
<path class="st0" d="M4.5,13.1v6.2c0,0.2,0.1,0.4,0.2,0.5C4.9,19.9,5.1,20,5.2,20h13.5c0.2,0,0.4-0.1,0.5-0.2
	c0.1-0.1,0.2-0.3,0.2-0.5v-6.2"/>
<path class="st0" d="M5.1,4h13.9c0.2,0,0.3,0.1,0.5,0.1c0.1,0.1,0.2,0.2,0.3,0.4L21,9.1H3l1.3-4.6c0-0.2,0.1-0.3,0.3-0.4
	C4.7,4.1,4.9,4,5.1,4L5.1,4z"/>
<path class="st0" d="M9,9.1v1.5c0,0.8-0.3,1.5-0.9,2.1c-0.6,0.5-1.3,0.9-2.1,0.9s-1.6-0.3-2.1-0.9S3,11.3,3,10.5V9.1"/>
<path class="st0" d="M15,9.1v1.5c0,0.8-0.3,1.5-0.9,2.1c-0.6,0.5-1.3,0.9-2.1,0.9c-0.8,0-1.6-0.3-2.1-0.9C9.3,12.1,9,11.3,9,10.5
	V9.1"/>
<path class="st0" d="M21,9.1v1.5c0,0.8-0.3,1.5-0.9,2.1c-0.6,0.5-1.3,0.9-2.1,0.9c-0.8,0-1.6-0.3-2.1-0.9c-0.6-0.5-0.9-1.3-0.9-2.1
	V9.1"/>
</svg>
